<svg width="85" height="34" viewBox="0 0 85 34" fill="none" xmlns="http://www.w3.org/2000/svg">
<path d="M42.8212 14.1346V15.6147H35.6081V5.00006H42.6879V6.48013H37.267V9.50006H41.9621V10.8904H37.267V14.1346H42.8212Z" fill="white"/>
<path d="M47.0525 15.7642C46.4304 15.7642 45.8083 15.6645 45.1862 15.4652C44.574 15.2559 44.0458 14.9619 43.6014 14.5831L44.2531 13.5366C44.7172 13.8755 45.1764 14.1346 45.6306 14.314C46.0848 14.4834 46.5489 14.5682 47.0228 14.5682C47.5067 14.5682 47.8868 14.4735 48.1633 14.2841C48.4497 14.0947 48.5928 13.8256 48.5928 13.4768C48.5928 13.1479 48.4348 12.9087 48.1189 12.7592C47.8029 12.6097 47.3092 12.4452 46.6377 12.2658C46.1539 12.1363 45.7392 12.0117 45.3936 11.8921C45.048 11.7725 44.7666 11.633 44.5494 11.4735C44.3321 11.314 44.1741 11.1296 44.0754 10.9203C43.9767 10.711 43.9273 10.4569 43.9273 10.1579C43.9273 9.7592 44.0013 9.40538 44.1495 9.09641C44.3074 8.78744 44.5197 8.5283 44.7863 8.319C45.0628 8.09973 45.3837 7.93528 45.7491 7.82564C46.1144 7.71601 46.5094 7.66119 46.934 7.66119C47.5166 7.66119 48.0596 7.75089 48.5632 7.93029C49.0668 8.1097 49.5161 8.36883 49.911 8.7077L49.2149 9.69441C48.4941 9.11634 47.7288 8.8273 46.9192 8.8273C46.5044 8.8273 46.1539 8.91701 45.8676 9.09641C45.5911 9.26584 45.4528 9.53993 45.4528 9.91867C45.4528 10.0781 45.4825 10.2127 45.5417 10.3223C45.601 10.432 45.6948 10.5266 45.8231 10.6064C45.9614 10.6861 46.1342 10.7609 46.3415 10.8306C46.5588 10.8904 46.8254 10.9602 47.1413 11.0399C47.6647 11.1695 48.1139 11.2991 48.4892 11.4286C48.8742 11.5582 49.1902 11.7127 49.4371 11.8921C49.6839 12.0615 49.8666 12.2658 49.9851 12.505C50.1036 12.7343 50.1628 13.0134 50.1628 13.3423C50.1628 14.0898 49.8814 14.6828 49.3186 15.1213C48.7656 15.5499 48.0103 15.7642 47.0525 15.7642Z" fill="white"/>
<path d="M51.0825 11.6977C51.0825 11.1496 51.1763 10.6313 51.3639 10.1429C51.5515 9.65455 51.8181 9.22598 52.1637 8.8572C52.5192 8.48843 52.9438 8.1994 53.4375 7.99009C53.9312 7.77083 54.4842 7.66119 55.0964 7.66119C55.8962 7.66119 56.5824 7.84059 57.1551 8.1994C57.7377 8.54823 58.1722 9.01667 58.4585 9.60471L56.8737 10.113C56.6861 9.78411 56.4343 9.52996 56.1184 9.35056C55.8024 9.16119 55.4518 9.06651 55.0667 9.06651C54.7409 9.06651 54.4348 9.13129 54.1485 9.26086C53.872 9.39043 53.6301 9.57481 53.4227 9.81402C53.2153 10.0433 53.0524 10.3173 52.9339 10.6363C52.8154 10.9552 52.7562 11.309 52.7562 11.6977C52.7562 12.0765 52.8154 12.4303 52.9339 12.7592C53.0623 13.0781 53.2302 13.3572 53.4375 13.5964C53.6547 13.8356 53.9016 14.025 54.1781 14.1645C54.4644 14.2941 54.7656 14.3589 55.0816 14.3589C55.279 14.3589 55.4765 14.334 55.674 14.2841C55.8715 14.2243 56.0492 14.1446 56.2072 14.0449C56.3751 13.9452 56.5183 13.8306 56.6367 13.7011C56.7651 13.5715 56.8589 13.432 56.9182 13.2825L58.5178 13.7609C58.261 14.3489 57.8315 14.8323 57.2292 15.211C56.6269 15.5798 55.9159 15.7642 55.0964 15.7642C54.494 15.7642 53.946 15.6545 53.4523 15.4353C52.9586 15.216 52.534 14.922 52.1786 14.5532C51.833 14.1745 51.5614 13.7409 51.3639 13.2526C51.1763 12.7642 51.0825 12.2459 51.0825 11.6977Z" fill="white"/>
<path d="M61.9184 15.7642C61.5431 15.7642 61.1926 15.7044 60.8668 15.5848C60.5508 15.4552 60.2743 15.2808 60.0373 15.0615C59.8102 14.8423 59.6275 14.5831 59.4893 14.2841C59.3609 13.9851 59.2968 13.6612 59.2968 13.3124C59.2968 12.9436 59.3758 12.6097 59.5337 12.3107C59.6917 12.0117 59.9139 11.7526 60.2002 11.5333C60.4965 11.314 60.8421 11.1446 61.237 11.025C61.6419 10.9054 62.0862 10.8456 62.57 10.8456C62.9354 10.8456 63.2958 10.8805 63.6513 10.9502C64.0067 11.01 64.3277 11.0947 64.614 11.2044V10.6662C64.614 10.0881 64.4511 9.6396 64.1252 9.32066C63.7994 8.99176 63.3304 8.8273 62.7182 8.8273C62.3034 8.8273 61.8937 8.90704 61.4888 9.06651C61.0939 9.21601 60.6841 9.43528 60.2595 9.72431L59.7559 8.6778C60.7532 8.00006 61.79 7.66119 62.8663 7.66119C63.9327 7.66119 64.7621 7.93528 65.3546 8.48345C65.947 9.03162 66.2432 9.819 66.2432 10.8456V13.6712C66.2432 14.02 66.3864 14.1994 66.6728 14.2094V15.6147C66.5148 15.6446 66.3765 15.6645 66.2581 15.6745C66.1494 15.6844 66.0408 15.6894 65.9322 15.6894C65.6162 15.6894 65.3694 15.6097 65.1916 15.4502C65.0238 15.2908 64.9201 15.0864 64.8806 14.8373L64.8362 14.3439C64.4906 14.8024 64.0611 15.1562 63.5476 15.4054C63.044 15.6446 62.5009 15.7642 61.9184 15.7642ZM62.3627 14.5532C62.7577 14.5532 63.1279 14.4835 63.4735 14.3439C63.829 14.1944 64.1055 13.9901 64.303 13.731C64.5103 13.5516 64.614 13.3622 64.614 13.1629V12.1313C64.3375 12.0217 64.0413 11.9369 63.7253 11.8771C63.4192 11.8173 63.1181 11.7874 62.8218 11.7874C62.2393 11.7874 61.7604 11.917 61.3851 12.1761C61.0198 12.4253 60.8371 12.7592 60.8371 13.1778C60.8371 13.5665 60.9803 13.8954 61.2667 14.1645C61.553 14.4237 61.9184 14.5532 62.3627 14.5532Z" fill="white"/>
<path d="M72.6188 15.7642C71.9967 15.7642 71.4487 15.6147 70.9748 15.3157C70.5008 15.0167 70.1256 14.628 69.8491 14.1496V18.7991H68.2199V7.79574H69.6565V9.20106C69.9528 8.73262 70.3329 8.35887 70.797 8.0798C71.271 7.80073 71.8042 7.66119 72.3966 7.66119C72.9298 7.66119 73.4186 7.77083 73.8629 7.99009C74.3073 8.20936 74.6924 8.50338 75.0182 8.87215C75.3441 9.24093 75.5959 9.6695 75.7736 10.1579C75.9612 10.6462 76.055 11.1595 76.055 11.6977C76.055 12.2658 75.9711 12.7991 75.8032 13.2974C75.6354 13.7858 75.3984 14.2143 75.0923 14.5831C74.7862 14.9419 74.4208 15.231 73.9963 15.4502C73.5815 15.6595 73.1224 15.7642 72.6188 15.7642ZM72.0856 14.3589C72.4312 14.3589 72.7422 14.2841 73.0187 14.1346C73.3051 13.9851 73.547 13.7858 73.7445 13.5366C73.9518 13.2874 74.1098 13.0034 74.2184 12.6844C74.327 12.3655 74.3813 12.0366 74.3813 11.6977C74.3813 11.3389 74.3172 11.0001 74.1888 10.6811C74.0703 10.3622 73.9024 10.0831 73.6852 9.84392C73.4779 9.60471 73.2261 9.41534 72.9298 9.27581C72.6336 9.13627 72.3127 9.06651 71.9671 9.06651C71.7597 9.06651 71.5425 9.10637 71.3154 9.18611C71.0883 9.26584 70.876 9.37548 70.6785 9.51501C70.481 9.65455 70.3082 9.819 70.1601 10.0084C70.012 10.1878 69.9083 10.3871 69.8491 10.6064V12.6545C69.9478 12.8937 70.0762 13.118 70.2342 13.3273C70.3922 13.5366 70.565 13.716 70.7526 13.8655C70.9501 14.015 71.1624 14.1346 71.3895 14.2243C71.6166 14.314 71.8486 14.3589 72.0856 14.3589Z" fill="white"/>
<path d="M81.0306 15.7642C80.4282 15.7642 79.8802 15.6595 79.3865 15.4502C78.8928 15.231 78.4682 14.9369 78.1127 14.5682C77.7671 14.1994 77.4956 13.7708 77.2981 13.2825C77.1105 12.7941 77.0167 12.2758 77.0167 11.7276C77.0167 11.1795 77.1105 10.6612 77.2981 10.1728C77.4956 9.67448 77.7671 9.24093 78.1127 8.87215C78.4682 8.49342 78.8928 8.1994 79.3865 7.99009C79.8802 7.77083 80.4332 7.66119 81.0454 7.66119C81.6477 7.66119 82.1908 7.77083 82.6746 7.99009C83.1683 8.20936 83.588 8.50338 83.9336 8.87215C84.2792 9.23096 84.5408 9.65455 84.7186 10.1429C84.9062 10.6213 85 11.1246 85 11.6529C85 11.7725 84.995 11.8871 84.9852 11.9967C84.9753 12.0964 84.9654 12.1811 84.9556 12.2509H78.7496C78.7793 12.5997 78.8582 12.9137 78.9866 13.1928C79.1248 13.4718 79.2976 13.716 79.505 13.9253C79.7222 14.1246 79.9642 14.2791 80.2308 14.3888C80.5072 14.4984 80.7936 14.5532 81.0898 14.5532C81.307 14.5532 81.5193 14.5283 81.7267 14.4785C81.9439 14.4187 82.1414 14.3389 82.3191 14.2393C82.4969 14.1296 82.6549 14.0001 82.7931 13.8506C82.9313 13.7011 83.04 13.5366 83.119 13.3572L84.5112 13.7609C84.2446 14.3489 83.8003 14.8323 83.1782 15.211C82.566 15.5798 81.8501 15.7642 81.0306 15.7642ZM83.3856 11.1147C83.3559 10.7858 83.272 10.4818 83.1338 10.2027C83.0054 9.92365 82.8375 9.68943 82.6302 9.50006C82.4228 9.30073 82.1809 9.14624 81.9044 9.03661C81.628 8.92697 81.3367 8.87215 81.0306 8.87215C80.7245 8.87215 80.4332 8.92697 80.1567 9.03661C79.8901 9.14624 79.6531 9.30073 79.4458 9.50006C79.2384 9.68943 79.0705 9.92365 78.9422 10.2027C78.8138 10.4818 78.7348 10.7858 78.7052 11.1147H83.3856Z" fill="white"/>
<path d="M35.6081 30.5648V19.9502H40.1848C40.6587 19.9502 41.0932 20.0499 41.4882 20.2492C41.893 20.4486 42.2386 20.7127 42.525 21.0416C42.8113 21.3605 43.0335 21.7293 43.1915 22.1479C43.3593 22.5565 43.4433 22.9751 43.4433 23.4037C43.4433 23.7625 43.3939 24.1064 43.2951 24.4353C43.1964 24.7642 43.0582 25.0682 42.8804 25.3472C42.7027 25.6263 42.4855 25.8705 42.2287 26.0798C41.972 26.2791 41.6906 26.4286 41.3845 26.5283L43.858 30.5648H41.9769L39.696 26.8722H37.267V30.5648H35.6081ZM37.267 25.3921H40.17C40.4069 25.3921 40.6192 25.3423 40.8069 25.2426C41.0043 25.133 41.1722 24.9884 41.3104 24.809C41.4487 24.6197 41.5573 24.4054 41.6363 24.1662C41.7153 23.927 41.7548 23.6728 41.7548 23.4037C41.7548 23.1346 41.7054 22.8805 41.6067 22.6413C41.5178 22.4021 41.3944 22.1928 41.2364 22.0134C41.0883 21.8339 40.9105 21.6944 40.7032 21.5947C40.5057 21.4851 40.2983 21.4303 40.0811 21.4303H37.267V25.3921Z" fill="white"/>
<path d="M48.4566 30.7143C47.8444 30.7143 47.2915 30.6047 46.7978 30.3854C46.3139 30.1662 45.8992 29.8722 45.5536 29.5034C45.208 29.1346 44.9414 28.706 44.7538 28.2177C44.5662 27.7193 44.4724 27.2011 44.4724 26.6629C44.4724 26.1246 44.5662 25.6114 44.7538 25.123C44.9414 24.6246 45.208 24.1911 45.5536 23.8223C45.9091 23.4536 46.3288 23.1595 46.8126 22.9403C47.3063 22.721 47.8543 22.6114 48.4566 22.6114C49.059 22.6114 49.602 22.721 50.0859 22.9403C50.5796 23.1595 50.9992 23.4536 51.3448 23.8223C51.7003 24.1911 51.9719 24.6246 52.1595 25.123C52.3471 25.6114 52.4409 26.1246 52.4409 26.6629C52.4409 27.2011 52.3471 27.7193 52.1595 28.2177C51.9719 28.706 51.7003 29.1346 51.3448 29.5034C50.9992 29.8722 50.5796 30.1662 50.0859 30.3854C49.602 30.6047 49.059 30.7143 48.4566 30.7143ZM46.1461 26.6778C46.1461 27.0565 46.2053 27.4054 46.3238 27.7243C46.4423 28.0433 46.6052 28.3223 46.8126 28.5615C47.0199 28.7908 47.2619 28.9751 47.5383 29.1147C47.8247 29.2443 48.1308 29.309 48.4566 29.309C48.7825 29.309 49.0837 29.2443 49.3601 29.1147C49.6465 28.9751 49.8933 28.7858 50.1007 28.5466C50.3081 28.3074 50.471 28.0283 50.5895 27.7094C50.708 27.3904 50.7672 27.0416 50.7672 26.6629C50.7672 26.2941 50.708 25.9502 50.5895 25.6313C50.471 25.3024 50.3081 25.0183 50.1007 24.7791C49.8933 24.5399 49.6465 24.3555 49.3601 24.226C49.0837 24.0864 48.7825 24.0167 48.4566 24.0167C48.1407 24.0167 47.8395 24.0864 47.5532 24.226C47.2767 24.3655 47.0348 24.5549 46.8274 24.7941C46.62 25.0333 46.4522 25.3173 46.3238 25.6462C46.2053 25.9652 46.1461 26.309 46.1461 26.6778Z" fill="white"/>
<path d="M57.3665 30.7143C56.7543 30.7143 56.2014 30.6047 55.7077 30.3854C55.2239 30.1662 54.8091 29.8722 54.4635 29.5034C54.1179 29.1346 53.8513 28.706 53.6637 28.2177C53.4761 27.7193 53.3823 27.2011 53.3823 26.6629C53.3823 26.1246 53.4761 25.6114 53.6637 25.123C53.8513 24.6246 54.1179 24.1911 54.4635 23.8223C54.819 23.4536 55.2387 23.1595 55.7225 22.9403C56.2162 22.721 56.7642 22.6114 57.3665 22.6114C57.9689 22.6114 58.512 22.721 58.9958 22.9403C59.4895 23.1595 59.9091 23.4536 60.2547 23.8223C60.6102 24.1911 60.8818 24.6246 61.0694 25.123C61.257 25.6114 61.3508 26.1246 61.3508 26.6629C61.3508 27.2011 61.257 27.7193 61.0694 28.2177C60.8818 28.706 60.6102 29.1346 60.2547 29.5034C59.9091 29.8722 59.4895 30.1662 58.9958 30.3854C58.512 30.6047 57.9689 30.7143 57.3665 30.7143ZM55.056 26.6778C55.056 27.0565 55.1152 27.4054 55.2337 27.7243C55.3522 28.0433 55.5151 28.3223 55.7225 28.5615C55.9299 28.7908 56.1718 28.9751 56.4482 29.1147C56.7346 29.2443 57.0407 29.309 57.3665 29.309C57.6924 29.309 57.9936 29.2443 58.27 29.1147C58.5564 28.9751 58.8032 28.7858 59.0106 28.5466C59.218 28.3074 59.3809 28.0283 59.4994 27.7094C59.6179 27.3904 59.6771 27.0416 59.6771 26.6629C59.6771 26.2941 59.6179 25.9502 59.4994 25.6313C59.3809 25.3024 59.218 25.0183 59.0106 24.7791C58.8032 24.5399 58.5564 24.3555 58.27 24.226C57.9936 24.0864 57.6924 24.0167 57.3665 24.0167C57.0506 24.0167 56.7494 24.0864 56.4631 24.226C56.1866 24.3655 55.9447 24.5549 55.7373 24.7941C55.5299 25.0333 55.3621 25.3173 55.2337 25.6462C55.1152 25.9652 55.056 26.309 55.056 26.6778Z" fill="white"/>
<path d="M74.6448 30.5648H73.0156V26.1845C73.0156 25.4569 72.8971 24.9236 72.6601 24.5848C72.4231 24.2459 72.0775 24.0765 71.6233 24.0765C71.1592 24.0765 70.7346 24.2509 70.3496 24.5997C69.9743 24.9386 69.7028 25.3821 69.5349 25.9303V30.5648H67.9057V26.1845C67.9057 25.4469 67.7872 24.9137 67.5502 24.5848C67.3132 24.2459 66.9726 24.0765 66.5282 24.0765C66.0642 24.0765 65.6396 24.2459 65.2545 24.5848C64.8694 24.9236 64.5929 25.3672 64.425 25.9153V30.5648H62.7958V22.7459H64.2769V24.3157C64.583 23.7675 64.9829 23.3489 65.4766 23.0599C65.9802 22.7609 66.5529 22.6114 67.1948 22.6114C67.8366 22.6114 68.3402 22.7808 68.7055 23.1197C69.0807 23.4585 69.3128 23.8821 69.4016 24.3904C69.7275 23.8124 70.1373 23.3738 70.631 23.0748C71.1247 22.7658 71.6875 22.6114 72.3195 22.6114C72.7737 22.6114 73.1489 22.7011 73.4451 22.8805C73.7512 23.0499 73.9931 23.2791 74.1709 23.5682C74.3486 23.8572 74.472 24.1961 74.5411 24.5848C74.6103 24.9635 74.6448 25.3672 74.6448 25.7957V30.5648Z" fill="white"/>
<rect x="29.2098" y="14.1429" width="13.6851" height="1.46429" fill="white"/>
<rect x="29.2143" y="19.9197" width="10.1628" height="1.45982" fill="white"/>
<path fill-rule="evenodd" clip-rule="evenodd" d="M18.3358 27.56L7.79509 22.0507L7.97757 21.7055L18.5183 27.2148L18.3358 27.56Z" fill="white"/>
<path fill-rule="evenodd" clip-rule="evenodd" d="M24.6013 22.1617V10.6981H24.9935V22.1617H24.6013Z" fill="white"/>
<path fill-rule="evenodd" clip-rule="evenodd" d="M24.4052 15.0357L18.4781 18.5354L18.3089 18.1762L24.205 14.7003L24.4052 15.0357Z" fill="white"/>
<path fill-rule="evenodd" clip-rule="evenodd" d="M23.8114 10.3201L17.9876 6.97186L10.6727 11.2572L16.3696 14.5533L23.8114 10.3201ZM17.9858 6.52026L9.89641 11.2592L16.3679 15.0036L24.6013 10.3201L24.2612 10.1281L17.9858 6.52026Z" fill="white"/>
<path d="M7.85731 22.0731L7.69022 21.9756L7.59217 14.5161L2.68951 11.6395M7.85731 22.0731L14.3263 18.363M7.85731 22.0731L14.3263 25.464M14.652 18.1762V25.5834L14.3263 25.464M14.652 18.1762L2.68951 11.2592V9.29929L2.98367 9.10427L16.4169 1.44974L29.6413 9.39683V14.125H30.0676L30.0832 9.13482L16.4173 1L2.77716 8.77242L2.2973 9.09055V25.1812L16.7116 33L18.1819 32.1982V32.2058L18.4702 32.0409L18.6231 31.9575V31.9535L30.0328 25.2244L30.0494 20.4286H29.6413V24.9984L18.5741 31.5316V27.5824L26.663 23.0504L18.3089 18.1762M14.652 18.1762L14.3263 18.363M18.3089 18.1762L18.2309 18.2215V31.7266L16.7111 32.5554L2.68951 24.9497V11.6395M18.3089 18.1762L18.4781 18.5354L24.4052 15.0357L24.205 14.7003L18.3089 18.1762ZM2.68951 11.6395V11.4933M14.3263 18.363V25.464M24.2612 10.1281L17.9858 6.52026L9.89641 11.2592L16.3679 15.0036L24.6013 10.3201L24.2612 10.1281ZM13.8693 18.1748L8.07618 21.4973L7.9878 14.774L13.8693 18.1748ZM25.8977 23.0613L18.6231 27.0942V18.807L25.8977 23.0613ZM17.9876 6.97186L23.8114 10.3201L16.3696 14.5533L10.6727 11.2572L17.9876 6.97186ZM7.79509 22.0507L18.3358 27.56L18.5183 27.2148L7.97757 21.7055L7.79509 22.0507ZM24.6013 10.6981V22.1617H24.9935V10.6981H24.6013Z" stroke="white" stroke-width="1.17537"/>
</svg>
